# xmcd
#
# Track frame offsets:
#	150
#	14071
#	25718
#	41210
#	54551
#	65870
#	80104
#	94540
#	109488
#	133802
#	143968
#	163744
#	177753
#	193889
#	205163
#
# Disc length: 2934 seconds
#
# Revision: 0
# Processed by: cddbd v1.5.2PL0 Copyright (c) Steve Scherf et al.
# Submitted via: audiograbber 1.83.01
#
DISCID=e60b740f
DTITLE=Mahalia Jackson - World's Greatest Gospel Singer GSS 5415 CD1
DYEAR=1900
DGENRE=
TTITLE0=Walk In Jerusalem
TTITLE1=I'm Going To Live The Life I Sing About In My Song
TTITLE2=His Eye Is On The Sparrow
TTITLE3=He's My Light
TTITLE4=Didn't It Rain
TTITLE5=A Satisfied Mind
TTITLE6=How I Got Over
TTITLE7=A City Called Heaven
TTITLE8=I Will Move On Up A Little Higher
TTITLE9=Jesus
TTITLE10=Silent Night, Holy Night
TTITLE11=If You Just Keep Still
TTITLE12=Consider Me
TTITLE13=Beautiful Tomorrow
TTITLE14=You'll Never Walk Alone
EXTD=
EXTT0=
EXTT1=
EXTT2=
EXTT3=
EXTT4=
EXTT5=
EXTT6=
EXTT7=
EXTT8=
EXTT9=
EXTT10=
EXTT11=
EXTT12=
EXTT13=
EXTT14=
PLAYORDER=
